<svg width="302" height="92" viewBox="0 0 302 92" fill="none" xmlns="http://www.w3.org/2000/svg">
<g filter="url(#filter0_f_1_366)">
<path fill-rule="evenodd" clip-rule="evenodd" d="M15.7287 3.36569C11.0983 5.09886 7.88708 7.09957 4.15276 10.578C2.28724 12.3149 1.73453 13.1003 2.11176 13.4757C2.75174 14.1125 10.1397 10.9352 11.0776 9.62041C11.8236 8.57407 13.1881 8.5073 13.9965 9.47707C14.932 10.5986 13.8327 12.1123 10.7773 13.9099C6.76195 16.2725 6.79996 16.2314 7.7102 17.232C8.14373 17.7091 8.68847 18.099 8.92072 18.099C9.15297 18.099 10.7562 17.2404 12.4843 16.1912L15.6255 14.2834L21.3248 14.5902C28.009 14.9497 29.9674 14.5253 32.814 12.1006C34.4548 10.7032 34.6974 10.6089 34.421 11.4754C34.1794 12.2328 34.2878 12.4961 34.8409 12.4961C35.2505 12.4961 37.0067 13.1745 38.7432 14.0042C41.3111 15.2308 43.3019 16.8715 49.4076 22.7947C53.5365 26.7999 58.076 30.9208 59.4953 31.9527C63.5379 34.8909 69.3348 38.0286 72.1903 38.8242C73.8555 39.2883 76.2282 40.5802 78.759 42.4012C86.1944 47.752 95.9475 52.577 98.3287 52.083C98.7143 52.0027 97.6366 50.5128 95.6149 48.3314C93.77 46.3414 92.4379 44.7128 92.6542 44.7128C93.8089 44.7128 101.265 53.169 102.856 56.2843C103.287 57.127 103.839 57.6939 104.083 57.544C104.327 57.3936 104.411 57.5715 104.27 57.9395C104.116 58.3363 104.895 59.4985 106.187 60.8035C108.374 63.0106 110.728 64.323 112.499 64.323C113.024 64.323 113.453 64.5331 113.453 64.7899C113.453 65.3717 112.708 65.3806 110.752 64.8226C109.915 64.5836 109.23 64.4841 109.23 64.6013C109.23 64.7185 110.286 66.8401 111.576 69.3166C112.866 71.7931 113.922 73.8891 113.922 73.975C113.922 74.0604 111.864 73.0995 109.347 71.8403C100.948 67.6348 93.922 65.1863 87.2303 64.1307C82.5862 63.3986 80.2121 63.5769 79.0372 64.7461C78.1148 65.6635 78.1139 65.7088 78.9725 67.604C79.7195 69.2517 79.7481 69.5912 79.1714 69.9544C77.6968 70.8836 75.127 70.9438 70.3571 70.1608C64.7451 69.2391 53.4276 69.1051 48 69.8961C46.1936 70.1589 44.4097 70.3784 44.0353 70.3835C43.5994 70.3896 43.5173 70.5544 43.8068 70.8425C44.0953 71.1296 45.7826 71.1324 48.4753 70.8509C53.864 70.2869 65.1303 70.3144 68.1754 70.899C77.8704 72.7601 82.1203 71.3874 79.8992 67.1128C78.8768 65.1457 79.3957 64.8054 83.4242 64.8012C86.7738 64.7984 93.3834 66.3195 99.1854 68.43C104.101 70.2173 115.272 75.6339 115.304 76.2451C115.348 77.0734 112.686 78.3303 110.888 78.3303C109.944 78.3303 107.232 77.7537 104.861 77.0491C100.898 75.8706 99.9253 75.7693 92.8081 75.7889C86.1746 75.8076 84.2603 75.9902 79.4361 77.0631C72.811 78.5362 68.8857 79.569 68.5179 79.9351C67.8296 80.62 69.0162 80.5014 73.3384 79.4532C82.8124 77.1556 87.5025 76.5318 94.2157 76.677C99.4773 76.7909 101.219 77.0216 104.503 78.039C111.085 80.0784 114.705 79.5527 116.648 76.275C118.477 73.1896 122.151 73.015 128.117 75.7296C129.471 76.3455 132.55 77.7004 134.961 78.7403C141.333 81.4903 145.162 83.7427 147.854 86.3243C149.16 87.577 150.525 88.6023 150.887 88.6023C151.249 88.6023 152.823 87.4505 154.386 86.0432C156.33 84.2928 159.023 82.6077 162.906 80.7116C175.183 74.7164 178.971 73.354 181.877 73.8881C183.538 74.193 185.709 75.7166 185.709 76.5775C185.709 77.1304 186.658 78.0534 187.916 78.7235C189.173 79.3925 192.368 79.4037 194.858 78.7473C206.66 75.6363 212.206 75.7175 227.467 79.2249C233.082 80.5154 234.583 80.6476 233.084 79.7203C232.021 79.0629 223.043 77.0164 217.584 76.1872C210.584 75.1236 202.27 75.499 197.004 77.1163C192.676 78.4452 189.864 78.6371 188.055 77.7261C186.996 77.1929 186.383 75.5583 187.223 75.5088C187.411 75.4976 190.473 74.0525 194.027 72.2978C203.304 67.7165 212.934 64.7615 218.693 64.7292C222.182 64.7101 223.015 65.3087 222.059 67.1483C221.086 69.0206 221.189 69.7186 222.604 70.8257C224.115 72.0088 226.586 72.0751 232.159 71.0816C236.973 70.2234 249.114 70.1435 254.326 70.9354C257.55 71.4252 259.046 71.3131 258.363 70.6333C257.772 70.0455 249.992 69.3362 243.654 69.2928C238.684 69.2587 235.154 69.5011 231.638 70.1164C224.245 71.4112 221.448 70.5964 223.005 67.6017C224.668 64.401 222.311 63.1221 216.162 63.8893C209.334 64.7414 201.683 67.2949 193.071 71.5956C190.282 72.9884 187.892 74.1281 187.761 74.1281C187.629 74.1281 187.932 73.5501 188.433 72.8441C189.307 71.612 192.747 65.0402 192.747 64.6008C192.747 64.4837 192.062 64.5836 191.225 64.8226C189.316 65.3675 188.524 65.3731 188.524 64.8418C188.524 64.6139 189.316 64.2838 190.283 64.1092C193.717 63.4887 196.013 61.3526 199.71 55.3402C200.774 53.6098 202.229 51.5101 202.943 50.6753C206.066 47.0236 209.638 43.9051 209.638 44.831C209.638 44.8959 208.127 46.5132 206.28 48.4252C204.434 50.3372 203.162 51.9808 203.456 52.0783C204.406 52.3935 210.586 50.2023 213.253 48.6041C214.682 47.7478 215.952 47.0474 216.075 47.0474C216.198 47.0474 218.893 45.2675 222.065 43.0922C226.064 40.35 228.531 38.9815 230.112 38.63C235.389 37.4566 243.067 32.0587 251.847 23.3517C258.674 16.5811 263.093 13.3197 266.304 12.6805C267.94 12.3551 268.129 12.0586 267.255 11.1888C266.817 10.7531 266.844 10.6285 267.376 10.6285C267.753 10.6285 268.336 11.0664 268.672 11.6015C269.031 12.1739 269.57 12.4644 269.982 12.307C270.367 12.1599 270.559 12.2388 270.407 12.4816C270.257 12.7244 270.826 13.2884 271.673 13.7353C272.932 14.3983 274.504 14.5519 280.252 14.572L287.29 14.5972L289.805 16.3481C292.67 18.3413 293.168 18.4403 294.266 17.232C295.167 16.2417 295.106 16.1697 291.747 14.255C288.699 12.518 287.187 10.7975 287.825 9.79037C288.578 8.59928 289.84 8.55212 290.892 9.67597C292.469 11.361 299.462 14.2283 299.976 13.401C300.298 12.8822 297.323 9.9225 293.882 7.33676C291.382 5.45885 285.289 2.61164 282.587 2.05928C281.079 1.75112 273.9 2.89505 267.114 4.5255C254.485 7.55947 251.208 8.87616 242.401 14.4553C231.091 21.62 225.383 25.0261 223.479 25.747C222.447 26.1378 218.45 27.1164 214.596 27.9214C208.037 29.2922 203.538 30.6705 202.307 31.6875C202.016 31.9279 200.643 32.7562 199.256 33.5285C197.35 34.5903 197.078 34.8569 198.142 34.622C198.917 34.4511 199.906 34.1308 200.34 33.9095C201.357 33.3912 201.661 33.402 201.661 33.9543C201.661 34.8671 195.267 36.2277 189.475 36.5471C182.939 36.9075 179.204 37.8502 175.164 40.1595C172.751 41.5383 172.635 41.6807 173.619 42.0468C174.204 42.2644 175.218 42.3662 175.873 42.2728C176.774 42.1434 177.062 42.3087 177.062 42.9559C177.062 43.9387 176.07 43.8262 171.531 42.3293C170.055 41.8428 168.788 41.4445 168.715 41.445C168.643 41.4454 168.542 44.4098 168.493 48.033C168.442 51.6562 168.292 54.7304 168.157 54.8639C168.022 54.9979 168.206 55.5241 168.564 56.0335C168.923 56.5429 169.114 57.2237 168.99 57.5463C168.866 57.8689 169.093 58.2584 169.495 58.412C169.896 58.5651 170.225 59.0829 170.225 59.562C170.225 60.2002 171.322 60.9431 174.331 62.3424C176.589 63.393 179.12 64.3893 179.956 64.557C180.792 64.7246 181.616 65.0878 181.787 65.3638C182.421 66.3849 178.113 65.2228 174.427 63.3785C172.385 62.3573 170.542 61.5216 170.33 61.5216C170.118 61.5216 169.675 62.2621 169.347 63.167C169.018 64.0718 167.973 65.734 167.024 66.8612C166.075 67.9878 164.592 70.1631 163.728 71.6955C161.946 74.856 156.152 81.6169 154.037 83.0041C152.372 84.0962 150.047 84.197 148.219 83.2562C145.829 82.0264 136.443 70.461 136.443 68.7456C136.443 68.4477 135.895 67.5933 135.225 66.8472C134.554 66.1006 133.594 64.5976 133.091 63.5059C132.588 62.4143 131.981 61.5216 131.741 61.5216C131.502 61.5216 129.665 62.3438 127.658 63.3491C123.754 65.304 120.491 66.1967 120.491 65.3087C120.491 65.0234 120.957 64.7899 121.526 64.7899C123.117 64.7899 132.184 60.4542 132.204 59.6838C132.213 59.3154 132.654 58.5544 133.184 57.9927C134.108 57.0145 134.129 56.7101 133.696 50.7257C133.447 47.2902 133.355 43.7963 133.489 42.9619C133.756 41.3128 133.317 41.078 131.637 41.9721C130.384 42.6393 125.123 43.8752 124.819 43.5736C124.544 43.2995 126.314 42.5529 128.198 42.1476L129.572 41.8521L128.198 40.9201C124.135 38.1626 119.826 36.9808 112.28 36.5545C106.026 36.2011 99.4674 34.6622 100.373 33.761C100.519 33.6158 101.542 33.8142 102.647 34.2023C106.964 35.7178 105.705 34.8555 97.7347 30.8377C96.4444 30.1868 92.1161 28.9467 88.1162 28.0811C78.1613 25.9268 77.2229 25.5728 71.2918 21.7316C70.61 21.2903 69.5018 20.6175 68.829 20.237C68.1561 19.8565 64.1445 17.4019 59.9143 14.783C50.8668 9.18198 48.1262 7.89705 42.135 6.44543C39.6835 5.85152 36.112 4.95318 34.1981 4.44939C31.2399 3.67012 28.4364 3.15138 21.0138 2.01072C20.3644 1.9108 17.986 2.52059 15.7287 3.36569ZM145.827 29.3637C143.362 30.58 140.325 32.8211 139.105 34.3236C138.633 34.9045 137.939 35.6875 137.56 36.0638C137.183 36.4397 136.302 37.9618 135.603 39.4461C134.436 41.9287 134.341 42.5632 134.426 47.3686C134.539 53.8036 135.284 55.596 138.722 57.7004C145.309 61.734 154.048 62.137 161.548 58.7528C164.813 57.2797 166.757 55.2332 167.247 52.7535C167.436 51.7977 167.603 48.915 167.618 46.347C167.643 41.987 167.547 41.4926 166.166 38.8765C164.26 35.264 160.529 31.5465 157.166 29.9076C153.481 28.1124 148.816 27.8887 145.827 29.3637ZM137.43 58.3485C138.706 59.5339 140.817 60.832 142.591 61.5216C145.217 62.5427 146.297 62.6861 151.223 62.6655C157.483 62.6398 160.349 61.8564 164.12 59.1375C166.509 57.4151 166.342 56.8011 163.928 58.4316C160.513 60.7376 156.42 61.7588 150.754 61.7177C144.833 61.6747 141.724 60.7918 137.683 58.0062L135.27 56.3426L137.43 58.3485ZM134.919 58.058C134.413 58.5614 138.396 63.8561 139.28 63.8561C140.769 63.8561 145.154 65.6785 147.181 67.1394C149.645 68.9151 152.273 69.0141 154.421 67.4112C156.682 65.7252 159.598 64.3828 161.738 64.042C163.439 63.7711 163.875 63.4144 165.545 60.9267C166.582 59.3817 167.317 58.0048 167.178 57.8671C167.04 57.7293 166.244 58.2742 165.409 59.0778C161.256 63.0764 151.342 65.0183 144.857 63.1035C141.707 62.1739 138.434 60.549 136.575 58.9923C135.8 58.3433 135.055 57.9231 134.919 58.058ZM134.39 60.2376C134.821 61.0719 135.645 62.3854 136.219 63.1558C136.794 63.9262 137.632 65.6841 138.082 67.0624C138.617 68.6989 139.552 70.1968 140.779 71.3813C143.137 73.6594 144.844 73.7625 147.751 71.802C150.355 70.0459 151.628 70.0445 154.273 71.7936C155.434 72.5617 156.87 73.191 157.463 73.1924C160.189 73.1976 162.646 70.5591 164.326 65.8223C164.71 64.7377 165.639 63.0638 166.389 62.1024C168.018 60.0163 168.962 57.7494 167.409 59.6539C166.886 60.2959 165.996 61.6159 165.432 62.5871C164.786 63.6969 163.962 64.4402 163.21 64.5882C159.72 65.2755 156.99 66.3723 155.153 67.8253C152.266 70.1094 149.64 70.1136 146.706 67.8389C144.43 66.0735 141.292 64.7899 139.255 64.7899C138.179 64.7899 137.626 64.2782 135.974 61.755C133.826 58.4741 133.134 57.8111 134.39 60.2376ZM168.4 60.6466C167.58 62.6226 166.554 66.1907 166.805 66.1907C167.283 66.1907 169.336 60.9478 169.202 60.0658C169.075 59.2239 168.952 59.3131 168.4 60.6466ZM133.159 61.0421C133.159 61.8302 134.551 64.9604 134.795 64.7185C135.119 64.3959 134.13 61.1298 133.611 60.8105C133.362 60.6578 133.159 60.7619 133.159 61.0421ZM165.689 64.6732C164.679 67.5723 162.493 71.4327 161.29 72.4393C159.371 74.046 157.128 74.4144 155.226 73.4352C153.79 72.6966 153.731 72.7003 153.981 73.5109C154.409 74.8985 154.478 77.6225 154.1 78.2313C153.596 79.0424 148.436 78.9751 147.747 78.1487C147.357 77.6813 147.338 76.9329 147.679 75.464C148.325 72.6746 148.335 72.6989 146.883 73.4525C143.251 75.3379 139.355 72.67 136.963 66.6576C136.401 65.2452 136.071 64.7199 136.229 65.4903C136.98 69.1485 141.499 75.8398 146.293 80.3903C149.112 83.0657 149.204 83.1105 151.361 82.8687C153.34 82.6464 153.864 82.3037 156.629 79.4187C160.873 74.9891 164.077 70.3779 165.367 66.8425C165.966 65.1999 166.347 63.8561 166.215 63.8561C166.082 63.8561 165.845 64.2236 165.689 64.6732ZM144.431 67.1306C145.449 67.6474 146.645 68.62 147.087 69.2919C147.865 70.4732 147.856 70.5423 146.807 71.3869C145.371 72.5444 143.961 72.4893 142.038 71.1992C140.165 69.9437 138.983 68.0457 139.4 66.9643C139.812 65.8951 142.15 65.9722 144.431 67.1306ZM162.626 67.4154C162.806 68.6718 160.088 71.6124 158.344 72.048C156.918 72.4043 154.273 71.5111 154.273 70.6735C154.273 67.6568 162.216 64.5584 162.626 67.4154ZM149.142 72.4155C148.913 73.0145 148.658 74.4297 148.576 75.5606C148.429 77.5954 148.445 77.6201 150.115 77.89C152.344 78.2509 153.943 77.6561 153.628 76.5827C153.496 76.1312 153.246 74.7645 153.073 73.5445C152.768 71.3934 152.71 71.3267 151.158 71.3267C149.913 71.3267 149.465 71.5685 149.142 72.4155ZM154.529 79.7661C154.685 80.0177 153.17 80.1951 150.899 80.1909C148.494 80.1863 147.248 80.0275 147.647 79.7759C148.515 79.2291 154.191 79.2207 154.529 79.7661ZM130.344 84.0005C127.705 84.8474 126.882 84.9175 124.244 84.5169C119.962 83.8665 109.865 83.8048 104.303 84.3945C98.5267 85.0076 86.6321 87.1717 86.0362 87.718C85.2123 88.4739 86.0062 88.508 89.2892 87.8581C102.852 85.1743 113.882 84.3343 122.542 85.3269C127.235 85.8648 128.085 85.8476 130.141 85.1715C133.251 84.1489 135.205 83.9841 137.795 84.5257C140.721 85.1379 145.307 87.2917 146.862 88.784C148.123 89.9946 149.112 90.3593 149.112 89.6141C149.112 89.0398 145.852 86.5353 143.706 85.4614C138.965 83.0877 134.654 82.6161 130.344 84.0005ZM163.361 83.6965C161.778 84.0387 159.772 84.6793 158.903 85.1201C156.686 86.2444 152.865 89.0641 152.865 89.5758C152.865 90.3966 153.927 89.9918 155.593 88.536C157.636 86.7506 161.136 85.1626 164.596 84.4506C166.762 84.0047 167.626 84.049 169.991 84.727C173.064 85.6085 174.804 85.6543 184.303 85.1038C191.734 84.6733 198.509 85.2485 208.934 87.1951C212.805 87.9178 216.063 88.4216 216.175 88.3147C216.822 87.6951 214.583 87.0727 207.046 85.7761C196.905 84.0317 185.261 83.4602 178.761 84.3871C174.962 84.9291 174.433 84.9002 171.457 83.9855C167.797 82.8603 167.304 82.843 163.361 83.6965ZM151.818 87.2016C151.496 87.7152 151.122 88.1354 150.988 88.1354C150.855 88.1354 150.481 87.7152 150.159 87.2016C149.622 86.3453 149.69 86.2678 150.988 86.2678C152.287 86.2678 152.355 86.3453 151.818 87.2016Z" fill="#2591A3" fill-opacity="0.4"/>
</g>
<defs>
<filter id="filter0_f_1_366" x="0" y="0" width="302" height="92" filterUnits="userSpaceOnUse" color-interpolation-filters="sRGB">
<feFlood flood-opacity="0" result="BackgroundImageFix"/>
<feBlend mode="normal" in="SourceGraphic" in2="BackgroundImageFix" result="shape"/>
<feGaussianBlur stdDeviation="1" result="effect1_foregroundBlur_1_366"/>
</filter>
</defs>
</svg>
